<?xml version="1.0" encoding="utf-8"?>
<!-- Generator: Adobe Illustrator 24.3.0, SVG Export Plug-In . SVG Version: 6.00 Build 0)  -->
<svg version="1.1" id="Capa_1" xmlns="http://www.w3.org/2000/svg" xmlns:xlink="http://www.w3.org/1999/xlink" x="0px" y="0px"
	 viewBox="0 0 500 250" style="enable-background:new 0 0 500 250;" xml:space="preserve">
<style type="text/css">
	.st0{fill:none;stroke:#3672B7;stroke-miterlimit:10;}
	.st1{fill:none;stroke:#3672B7;stroke-width:0.9106;stroke-miterlimit:10;}
	.st2{fill:#2E8B57;stroke:#3672B7;stroke-width:0.9106;stroke-miterlimit:10;}
	.st3{fill:#2E8B57;stroke:#0B5629;stroke-width:0.9106;stroke-miterlimit:10;}
	.st4{fill:#57B037;stroke:#0B5629;stroke-width:0.9106;stroke-miterlimit:10;}
	.st5{fill:none;stroke:#3672B7;stroke-width:4;stroke-miterlimit:10;}
	.st6{fill:none;stroke:#3672B7;stroke-width:15;stroke-miterlimit:10;}
	.st7{font-family:'Verdana';}
	.st8{font-size:22.5427px;}
</style>
<g>
	<path class="st0" d="M156.21,113.64"/>
	<path class="st1" d="M155.33,141.78"/>
	<path class="st1" d="M153.26,139.93"/>
	<line class="st1" x1="109.09" y1="121.38" x2="109.09" y2="121.38"/>
	<path class="st2" d="M162.29,147.18"/>
	<path class="st3" d="M138.82,174.3"/>
	<path class="st2" d="M182.92,136.63"/>
	<path class="st4" d="M182.92,123.34"/>
	<path class="st5" d="M153.19,161.7c-5.82-1.46-11.44-4.5-16-8.31c-1.32-1.1-2.53-2.32-3.65-3.61"/>
	<path class="st5" d="M154.48,168.99c-4.28-1.21-8.45-2.82-12.36-4.92c-3.73-2-7.22-4.45-10.3-7.35c-1.78-1.68-3.42-3.51-4.89-5.47"
		/>
	<path class="st6" d="M157.41,145.76"/>
	<path class="st5" d="M196.16,113.22c1.91,4.26,2.85,8.93,2.84,13.59c0,1.31-0.08,2.63-0.24,3.93"/>
	<path class="st5" d="M200.76,106.97c1.78,3.33,3.06,6.91,3.82,10.6c0.75,3.68,0.99,7.46,0.71,11.21c-0.17,2.25-0.52,4.48-1.06,6.67
		"/>
	<path class="st5" d="M205.88,102.06c2.63,4.27,4.43,9.01,5.37,13.92c0.94,4.91,1.05,9.97,0.4,14.93c-0.4,3.04-1.08,6.05-2.03,8.97"
		/>
	<g>
		<path class="st4" d="M191.75,118.91c-0.38-1.96-1.34-4.48-2.21-4.43c-0.75,0.04-0.72,1.99-2.21,4.43
			c-1.2,1.96-2.16,2.24-4.41,4.43c-1.06,1.03-3.13,3.2-4.78,5.91c-2.52,4.15-3.55,8.8-2.94,9.09c0.18,0.09,0.4-0.28,1.54-1.18
			c1.31-1.04,1.91-1.25,2.92-1.96c1.27-0.9,2.08-1.75,2.97-2.84c2.87-3.49,6.8-11.28,6.89-11.23c0.04,0.02-1.71,4.55-5.27,9.91
			c-1.32,1.98-2.02,2.77-2.42,3.21c-0.93,1-2.79,2.9-6.86,4.77c-3.1,1.42-12.97,4.24-9.71,3.23c0.44-2.03,0.58-3.68,0.63-4.84
			c0.04-1.2,0-2.39-0.02-2.85c-0.02-0.61-0.05-1.35-0.15-2.32c-0.18-1.83-0.32-1.74-0.23-2.18c0.15-0.77,0.55-0.88,2.26-2.82
			c0.78-0.88,0.77-0.94,1.44-1.66c0.82-0.89,1.28-1.37,1.78-1.73c1.34-0.95,2.88-0.84,3.53-0.85c3.29-0.04,8.4-3.41,9.94-8.24
			c0.82-2.57,0.89-6.34-0.85-8.87c-0.12-0.18-0.2-0.27-2.23-2.81c-0.22,1.03-0.54,1.82-0.79,2.34c-0.9,1.89-2.32,3.41-2.97,4.29
			c-0.04,0.06-0.24,0.34-0.53,0.69c0,0,0,0,0,0c-0.48,0.58-0.95,1.02-1.78,1.89c-3.13,3.28-4.74,5.01-5.31,7.53
			c-0.34,1.52-0.21,3.12,0.1,3.2c0.18,0.05,0.34-0.43,0.97-1.07c0.49-0.5,0.9-0.74,1.33-1.02c1.16-0.75,2.06-1.51,3.08-2.37
			c0.51-0.43,1.36-1.15,2.27-2.2c0.58-0.66,1.67-1.94,2.54-3.74c1.22-2.56,1.37-4.9,1.45-4.88c0.05,0.01-0.04,1.1-0.25,2.16
			c-0.86,4.24-3.54,7.05-4.58,8.13c-0.69,0.72-1.3,1.23-2.5,2.25c-2.42,2.04-2.84,2.04-4.41,3.38c-2.96,2.54-4.25,4.95-4.87,4.59
			c-0.2-0.11-0.11-0.39-0.31-1.42c-0.15-0.77-0.37-1.41-0.82-2.68c-0.65-1.83-0.94-2.22-0.92-3.16c0-0.37,0.05-0.61,0.2-1.28
			c0.5-2.26,1-4.17,1.07-4.43c0.15-0.58,0.27-1.07,0.37-1.49c0.31-1.34,0.24-1.6,0.43-2.02c0.46-1.02,1.62-1.34,2.17-1.56
			c3.27-1.31,4.37-6.98,4.42-7.23c0.71-3.85-0.87-6.98-1.79-8.8c-1.92-3.81-5.16-6.76-5.69-6.39c-0.13,0.09-0.04,0.32,0,1.11
			c0,0,0.05,0.86-0.18,3.01c-0.4,3.73-3.95,10.84-1.99,16.77c0.56,1.68,1.53,3.19,1.87,3.09c0.25-0.08,0.02-1.02,0.43-2.44
			c0.23-0.78,0.52-1.27,0.72-1.64c0.69-1.27,0.99-2.49,1.51-4.65c1.04-4.33-0.05-9.91,0-9.92c0.04,0,1.04,3.34,0.64,7.92
			c-0.24,2.73-0.73,3.2-2.26,8.89c-1.63,6.1-1.99,9.03-2.83,9.01c-0.64-0.02-1.05-1.64-1.77-3.73c-2.49-7.25-6.1-12.1-6.13-12.08
			c-0.03,0.01,2.27,3.93,4.41,9.11c2.44,5.9,3.69,11.07,4.38,14.69c0,0,0,0,0,0c0,0.02,0.49,1.83,0.72,4.44
			c0.13,1.47,0.64,6.2-0.81,6.74c-0.63,0.23-0.97-0.57-3.92-2.36c-1.83-1.11-2.37-1.22-3.45-2.18c-0.51-0.45-1.48-1.32-2.02-2.47
			c-1.01-2.13,0.16-4.07,0.19-5.6c0.15-7.45-11.47-13.95-12.52-13.05c-0.21,0.18-0.03,0.48,0.2,2.56c0.25,2.33,0.16,3.23,0.26,4.53
			c0.13,1.63,0.69,4.28,1.79,6.57c1.09,2.27,2.84,5.96,6.73,7.3c1.56,0.54,3,0.53,3.95,0.45c-2.79-3.24-4.11-5.61-4.78-7.17
			c-0.2-0.45-0.96-2.27-1.41-3.34c-0.64-1.53-0.97-2.3-1.38-3.32c-1.23-3.01-1.6-4.01-1.59-4.01c0.01,0,0.18,0.46,0.5,1.29
			c1.24,3.15,2.83,7.21,5.48,11.37c2.06,3.24,3.1,4.86,4.88,6.12c1.02,0.72,4.85,3.19,5.21,3.42c0.48,0.31,0.88,0.57,1.15,0.74
			c0,0,0.23,0.21,0.43,0.46c0.91,1.15-6.59,22.19-2.76,25.35c1.24,1.02,4.04,0.45,4.63-0.7c0.54-1.06-0.74-2.01-1.27-5.32
			c-0.28-1.71-0.21-3.12-0.16-4.06c0.07-1.44,0.19-1.18,0.55-4.08c0.15-1.25,0.39-2.62,0.87-5.38c0.11-0.65,0.19-1.07,0.52-1.47
			c0.6-0.73,1.29-0.52,3.25-1.04c1.27-0.33,2.31-0.77,3.22-1.16c0.6-0.25,0.99-0.42,1.53-0.68c0.8-0.4,1.2-0.59,2.96-1.23
			c11.5-4.13,13.56-9.68,13.56-9.68l0,0C192.43,124.75,192.12,120.82,191.75,118.91z"/>
		<path class="st0" d="M176.64,113.5"/>
		<path class="st5" d="M196.96,145.02c-1.84,3.29-4.17,6.32-6.88,8.96c-2.7,2.64-5.78,4.9-9.1,6.72c-1.99,1.09-4.08,2.02-6.22,2.78"
			/>
		<path class="st5" d="M203.92,146.57c-2.17,4.51-5.2,8.6-8.84,12.06c-3.64,3.47-7.87,6.33-12.42,8.51
			c-2.79,1.34-5.71,2.42-8.71,3.24"/>
		<path class="st5" d="M175.27,90.57c4.55,1.26,8.83,3.51,12.49,6.48c1.03,0.84,2.02,1.73,2.95,2.68"/>
		<path class="st5" d="M172.98,83.21c3.75,0.69,7.39,1.92,10.8,3.63c3.4,1.7,6.56,3.87,9.37,6.42c1.69,1.53,3.25,3.19,4.66,4.96"/>
		<path class="st5" d="M171.35,76.52c5.03,0.49,9.95,1.93,14.47,4.14c4.54,2.21,8.69,5.18,12.3,8.67c2.22,2.15,4.24,4.49,6.03,7"/>
		<text transform="matrix(0.7453 0 0 1 217.9149 138.8943)" class="st7 st8">BIOGUARD</text>
		<path class="st5" d="M188.58,143.77c-2.35,3.94-5.45,7.08-8.98,9.2c-1,0.6-2.03,1.12-3.09,1.55"/>
	</g>
	<path class="st5" d="M152.87,154c-4.04-0.81-7.78-2.77-10.92-5.61c-0.89-0.8-1.73-1.67-2.51-2.61"/>
	<path class="st5" d="M135.7,129.93c-1.62-4.42-2.27-9.16-1.95-13.8c0.09-1.31,0.25-2.61,0.5-3.9"/>
	<path class="st5" d="M130.72,135.75c-1.56-3.48-2.6-7.16-3.12-10.91c-0.51-3.74-0.5-7.53,0.02-11.24c0.31-2.22,0.81-4.42,1.49-6.55
		"/>
	<path class="st5" d="M125.29,140.19c-2.34-4.49-3.83-9.38-4.45-14.35c-0.62-4.98-0.4-10.04,0.57-14.92c0.59-3,1.47-5.94,2.6-8.77"
		/>
	<path class="st5" d="M142.81,99.32c2.74-3.57,6.14-6.23,9.85-7.81c1.05-0.45,2.12-0.81,3.21-1.08"/>
	<path class="st5" d="M135.55,97.84c1.94-3.2,4.28-5.95,6.89-8.16c2.61-2.21,5.49-3.89,8.54-5c1.83-0.66,3.72-1.12,5.64-1.36"/>
	<path class="st5" d="M128.99,94.99c2.36-4.48,5.41-8.23,8.91-11.11c3.5-2.88,7.44-4.9,11.58-6.07c2.54-0.71,5.16-1.1,7.82-1.17"/>
</g>
</svg>
